HIERARCHY
ROOT Pelvis
{
	OFFSET -0.217368 -24.078917 2.858379
	CHANNELS 6 Xposition Yposition Zposition Zrotation Yrotation Xrotation 
	JOINT Left_hip
	{
		OFFSET 5.858135 -8.228005 -1.766408
		CHANNELS 3 Zrotation Yrotation Xrotation
		JOINT Left_knee
		{
			OFFSET 4.345143 -38.646942 0.803700
			CHANNELS 3 Zrotation Yrotation Xrotation
			JOINT Left_ankle
			{
				OFFSET -1.479033 -42.687447 -3.742800
				CHANNELS 3 Zrotation Yrotation Xrotation
				JOINT Left_foot
				{
					OFFSET 4.105436 -6.028605 12.204244
					CHANNELS 3 Zrotation Yrotation Xrotation
					End Site
					{
						OFFSET 0.000000 0.000000 0.000000
					}
				}
			}
		}
	}
	JOINT Right_hip
	{
		OFFSET -6.030973 -9.051328 -1.354253
		CHANNELS 3 Zrotation Yrotation Xrotation
		JOINT Right_knee
		{
			OFFSET -4.325663 -38.368790 -0.484304
			CHANNELS 3 Zrotation Yrotation Xrotation
			JOINT Right_ankle
			{
				OFFSET 1.905555 -42.004566 -3.456167
				CHANNELS 3 Zrotation Yrotation Xrotation
				JOINT Right_foot
				{
					OFFSET -3.483987 -6.210554 13.032330
					CHANNELS 3 Zrotation Yrotation Xrotation
					End Site
					{
						OFFSET 0.000000 0.000000 0.000000
					}
				}
			}
		}
	}
	JOINT Spine1
	{
		OFFSET 0.443945 12.440353 -3.838522
		CHANNELS 3 Zrotation Yrotation Xrotation
		JOINT Spine2
		{
			OFFSET 0.448844 13.795640 2.682033
			CHANNELS 3 Zrotation Yrotation Xrotation
			JOINT Spine3
			{
				OFFSET -0.226460 5.603239 0.285504
				CHANNELS 3 Zrotation Yrotation Xrotation
				JOINT Neck
				{
					OFFSET -1.339018 21.163553 -3.346758
					CHANNELS 3 Zrotation Yrotation Xrotation
					JOINT Head
					{
						OFFSET 1.011321 8.893734 5.040987
						CHANNELS 3 Zrotation Yrotation Xrotation
						End Site
						{
							OFFSET 0.000000 0.000000 0.000000
						}
					}
				}
				JOINT Left_collar
				{
					OFFSET 7.170247 11.399971 -1.889817
					CHANNELS 3 Zrotation Yrotation Xrotation
					JOINT Left_shoulder
					{
						OFFSET 12.292140 4.520507 -1.904600
						CHANNELS 3 Zrotation Yrotation Xrotation
						JOINT Left_elbow
						{
							OFFSET 25.533188 -1.564902 -2.294648
							CHANNELS 3 Zrotation Yrotation Xrotation
							JOINT Left_wrist
							{
								OFFSET 26.570929 1.269810 -0.737473
								CHANNELS 3 Zrotation Yrotation Xrotation
								JOINT Left_palm
								{
									OFFSET 8.669054 -1.063602 -1.559429
									CHANNELS 3 Zrotation Yrotation Xrotation
									End Site
									{
										OFFSET 0.000000 0.000000 0.000000
									}
								}
							}
						}
					}
				}
				JOINT Right_collar
				{
					OFFSET -8.295364 11.247234 -2.370738
					CHANNELS 3 Zrotation Yrotation Xrotation
					JOINT Right_shoulder
					{
						OFFSET -11.322830 4.685326 -0.847207
						CHANNELS 3 Zrotation Yrotation Xrotation
						JOINT Right_elbow
						{
							OFFSET -26.012751 -1.436928 -3.126872
							CHANNELS 3 Zrotation Yrotation Xrotation
							JOINT Right_wrist
							{
								OFFSET -26.910841 0.679372 -0.602677
								CHANNELS 3 Zrotation Yrotation Xrotation
								JOINT Right_palm
								{
									OFFSET -8.875370 -0.865157 -1.010708
									CHANNELS 3 Zrotation Yrotation Xrotation
									End Site
									{
										OFFSET 0.000000 0.000000 0.000000
									}
								}
							}
						}
					}
				}
			}
		}
	}
}
MOTION
Frames: 13
Frame Time: 0.016667
8.295352 67.079544 -4.528782 -1.390972 -18.562624 -2.188039 9.475198 -0.178677 -7.746590 -6.768316 1.272870 20.090602 8.228599 16.613957 -3.618460 0.000000 0.000000 0.000000 -10.331971 0.423879 -19.247088 3.644542 -0.149659 30.081464 -4.468638 -12.004446 3.806960 0.000000 0.000000 0.000000 -4.368944 -0.024614 23.399640 9.173541 -2.125296 -19.334936 -1.360329 2.545167 30.172562 -9.046927 6.554447 -12.406825 0.000000 0.000000 0.000000 -9.707780 -1.824687 -0.190862 -55.099093 -5.884716 -3.478700 -23.145753 -40.715768 10.196733 0.000000 0.000000 0.000000 0.000000 0.000000 0.000000 -2.333619 15.325693 5.169508 61.494555 7.258957 -1.761492 -0.218537 59.943997 1.921827 0.000000 0.000000 0.000000 0.000000 0.000000 0.000000 
8.010909 67.700569 -4.218057 -1.315251 -20.945316 -2.490354 9.785125 -0.145736 -5.033901 -7.095189 1.291611 17.559244 8.761237 17.859898 -1.808037 0.000000 0.000000 0.000000 -8.990069 0.579186 -17.373816 2.214510 0.397996 29.904270 -3.783280 -10.201735 2.649757 0.000000 0.000000 0.000000 -3.526206 -0.160036 18.891730 9.474741 -2.191195 -19.519975 -2.800790 1.195190 30.040830 -8.115896 5.953014 -13.194908 0.000000 0.000000 0.000000 -9.767456 -2.768960 0.213909 -52.815403 -5.237546 -3.611503 -24.951621 -39.140166 10.434823 0.000000 0.000000 0.000000 0.000000 0.000000 0.000000 -2.058972 15.219486 5.149316 62.533335 6.361389 -2.274406 3.471712 58.376472 3.869015 0.000000 0.000000 0.000000 0.000000 0.000000 0.000000 
7.398400 68.099968 -3.952136 -1.121188 -21.769224 -2.398997 9.368431 -0.147426 -3.793463 -6.241695 1.023566 15.812751 8.074973 16.513065 -1.183652 0.000000 0.000000 0.000000 -8.118223 0.643550 -15.721436 0.989181 0.828874 28.763061 -3.404624 -9.053031 1.639222 0.000000 0.000000 0.000000 -3.366431 -0.149558 15.572116 10.206234 -2.377946 -19.715440 -3.538241 0.049803 30.423436 -8.185202 6.011723 -12.657742 0.000000 0.000000 0.000000 -10.957625 -2.617975 0.055712 -51.700519 -5.357091 -3.481252 -25.494681 -37.833056 10.251013 0.000000 0.000000 0.000000 0.000000 0.000000 0.000000 -0.898526 14.075799 4.819083 63.192135 4.786972 -3.158958 4.976323 58.999787 4.751370 0.000000 0.000000 0.000000 0.000000 0.000000 0.000000 
6.508945 68.577881 -3.743505 -0.739272 -21.904427 -2.704542 9.024529 -0.133414 -2.075215 -5.599331 0.822160 13.358483 7.686179 15.962323 1.123570 0.000000 0.000000 0.000000 -7.432061 0.645211 -13.534962 0.141218 1.041048 26.337530 -3.317387 -8.699561 1.129113 0.000000 0.000000 0.000000 -3.585640 -0.090843 12.747039 10.262078 -2.341610 -20.144301 -3.560270 -1.357074 30.386283 -8.162794 5.999205 -12.613654 0.000000 0.000000 0.000000 -12.041790 -2.427288 -0.116721 -51.769145 -5.269868 -3.523124 -26.839411 -35.729784 10.091445 0.000000 0.000000 0.000000 0.000000 0.000000 0.000000 -0.023805 12.896669 4.442725 63.541151 2.675093 -4.335184 10.029907 57.373855 7.294840 0.000000 0.000000 0.000000 0.000000 0.000000 0.000000 
5.337591 68.897736 -3.631035 -0.689152 -21.215148 -2.702104 9.119198 -0.129948 -1.826564 -5.168111 0.719355 13.045887 7.030949 14.815207 2.096128 0.000000 0.000000 0.000000 -7.186655 0.587842 -11.368227 -0.144017 1.043250 24.178274 -2.658326 -7.084958 1.055279 0.000000 0.000000 0.000000 -4.129174 -0.018801 11.283476 10.815557 -2.401165 -20.905960 -3.601531 -2.063293 30.591426 -7.757386 5.757595 -12.250982 0.000000 0.000000 0.000000 -13.663310 -2.126316 -0.391587 -51.399650 -5.434435 -3.427680 -27.736389 -34.448178 9.996228 0.000000 0.000000 0.000000 0.000000 0.000000 0.000000 1.246804 11.718530 4.055879 63.422020 0.959508 -5.259369 14.508108 56.454588 9.516874 0.000000 0.000000 0.000000 0.000000 0.000000 0.000000 
4.015387 69.036270 -3.620982 -0.569749 -22.147483 -2.186218 9.482188 -0.130415 -2.056842 -5.181408 0.712914 12.260092 6.820822 14.540101 3.058654 0.000000 0.000000 0.000000 -6.478808 0.607872 -10.583553 -0.739612 1.153583 22.486696 -1.957964 -5.344901 0.964632 0.000000 0.000000 0.000000 -4.361978 0.012664 8.775446 10.634822 -2.290361 -21.395376 -3.350136 -1.681958 30.998904 -7.660916 5.669465 -13.412200 0.000000 0.000000 0.000000 -15.295805 -1.101051 -1.035566 -51.825589 -5.548412 -3.408503 -26.880200 -32.730573 9.197853 0.000000 0.000000 0.000000 0.000000 0.000000 0.000000 2.667729 11.419041 3.971935 62.326848 0.005692 -5.658241 15.890713 53.246765 9.545060 0.000000 0.000000 0.000000 0.000000 0.000000 0.000000 
2.609607 69.017761 -3.705408 -0.798480 -21.902117 -1.563282 10.351607 -0.125510 -2.498674 -5.272961 0.729515 11.986837 6.649890 14.341492 3.967981 0.000000 0.000000 0.000000 -5.915982 0.609801 -9.813234 -0.351783 0.974886 21.238653 -2.092044 -5.711291 1.067609 0.000000 0.000000 0.000000 -4.471168 0.024481 7.229393 10.928338 -2.286949 -22.046041 -3.235524 -1.949734 31.184020 -7.622243 5.633073 -13.959424 0.000000 0.000000 0.000000 -15.485620 -0.333956 -1.432076 -53.078682 -5.139375 -3.673428 -25.174932 -31.394916 8.294832 0.000000 0.000000 0.000000 0.000000 0.000000 0.000000 3.144236 11.007285 3.823504 61.778056 -0.088489 -5.648517 15.276930 50.493118 8.669629 0.000000 0.000000 0.000000 0.000000 0.000000 0.000000 
1.114039 68.896744 -3.925322 -0.655283 -21.412123 -1.605268 11.248321 -0.116826 -2.469659 -5.231129 0.727020 12.515245 6.276268 13.751370 4.634164 0.000000 0.000000 0.000000 -5.352425 0.598196 -8.930012 -0.503465 0.983671 20.464517 -1.854111 -4.712284 0.004845 0.000000 0.000000 0.000000 -4.794800 0.046378 6.232626 11.022370 -2.218938 -22.773050 -2.917760 -2.191537 31.388697 -8.114324 5.900282 -14.969597 0.000000 0.000000 0.000000 -15.644017 0.585286 -1.902656 -55.187524 -4.737520 -4.013144 -21.687357 -30.396575 7.030652 0.000000 0.000000 0.000000 0.000000 0.000000 0.000000 3.073499 10.724886 3.715449 60.865009 -0.070225 -5.540569 15.920749 47.510245 8.343436 0.000000 0.000000 0.000000 0.000000 0.000000 0.000000 
-0.381896 68.869308 -4.219027 -0.764957 -20.471474 -1.639166 11.800685 -0.105991 -2.934495 -4.177772 0.494911 13.124407 5.801357 12.984429 5.237955 0.000000 0.000000 0.000000 -4.619042 0.575186 -7.866085 -1.259067 1.123762 18.970920 -1.566468 -3.972637 -0.030153 0.000000 0.000000 0.000000 -4.024507 0.000929 5.734499 10.159383 -1.993727 -22.799004 -2.681671 -2.065863 31.235895 -7.391183 5.493553 -13.970946 0.000000 0.000000 0.000000 -16.187405 0.099644 -1.723210 -56.238829 -4.841329 -4.046822 -19.305546 -29.947259 6.266173 0.000000 0.000000 0.000000 0.000000 0.000000 0.000000 4.143458 10.975677 3.824333 60.987449 0.094502 -5.468835 14.627463 45.672836 7.432647 0.000000 0.000000 0.000000 0.000000 0.000000 0.000000 
-1.717371 68.901085 -4.582797 -0.917329 -19.420288 -1.388794 12.478706 -0.083422 -3.681813 -3.716792 0.389458 13.519069 5.189974 11.974204 5.752157 0.000000 0.000000 0.000000 -4.021588 0.549740 -7.051245 -1.148618 1.022271 17.634255 -1.511927 -3.565386 -0.653940 0.000000 0.000000 0.000000 -3.654027 -0.017156 5.337702 9.874568 -1.914129 -22.854224 -2.623911 -1.949830 30.942074 -7.328928 5.455981 -13.973440 0.000000 0.000000 0.000000 -16.580526 -0.141766 -1.645295 -57.281248 -5.125992 -3.990886 -18.039040 -28.931083 5.707639 0.000000 0.000000 0.000000 0.000000 0.000000 0.000000 4.933601 11.011848 3.848964 60.816313 0.232376 -5.379968 13.975047 44.695211 6.985609 0.000000 0.000000 0.000000 0.000000 0.000000 0.000000 
-2.837895 68.952843 -5.017060 -0.678865 -19.179199 -1.387046 13.243508 -0.047473 -4.519167 -3.890680 0.429752 13.952102 5.148708 12.137128 7.093235 0.000000 0.000000 0.000000 -3.521523 0.548635 -6.755602 -1.090793 0.962803 16.788063 -1.891140 -4.401732 -0.982733 0.000000 0.000000 0.000000 -3.614392 -0.019483 5.354875 9.663688 -1.895735 -22.543815 -2.173005 -1.490495 30.843786 -7.635098 5.632235 -14.325040 0.000000 0.000000 0.000000 -17.020907 0.104953 -1.818827 -57.775586 -5.427651 -3.880930 -17.444611 -28.780602 5.521124 0.000000 0.000000 0.000000 0.000000 0.000000 0.000000 4.585639 11.365682 3.984137 61.203432 0.515262 -5.273744 13.916743 44.900947 6.999648 0.000000 0.000000 0.000000 0.000000 0.000000 0.000000 
-3.687728 69.059929 -5.501504 -0.582444 -18.662458 -0.757868 13.645576 -0.021616 -5.047474 -3.536336 0.346411 13.953825 4.437383 10.882377 7.027474 0.000000 0.000000 0.000000 -4.042327 0.537884 -6.880190 -0.088833 0.670962 16.007787 -1.647370 -4.027663 -0.385456 0.000000 0.000000 0.000000 -2.914135 -0.050300 4.854610 9.450586 -1.854851 -22.417043 -2.493793 -1.368632 30.971120 -8.413399 6.095503 -14.397944 0.000000 0.000000 0.000000 -17.977842 -0.406763 -1.660676 -57.706271 -5.477436 -3.851620 -14.863087 -29.574936 4.992900 0.000000 0.000000 0.000000 0.000000 0.000000 0.000000 4.829939 12.264144 4.346251 60.826079 1.072320 -4.949134 13.454238 45.851271 6.982337 0.000000 0.000000 0.000000 0.000000 0.000000 0.000000 
-4.200932 69.154968 -5.886347 -0.038338 -18.830665 -0.420428 13.243495 -0.020128 -5.637548 -3.737791 0.394184 13.627264 4.265889 10.575542 6.999281 0.000000 0.000000 0.000000 -4.524771 0.530953 -7.062400 -0.530518 0.762534 15.595394 -1.353078 -3.186959 -0.586569 0.000000 0.000000 0.000000 -2.704666 -0.053024 4.394614 9.166353 -1.816958 -22.090483 -2.346286 -1.096534 31.020487 -8.489840 6.175404 -13.381116 0.000000 0.000000 0.000000 -17.858182 -0.884483 -1.400147 -58.145508 -6.087568 -3.582415 -13.401830 -29.683959 4.622585 0.000000 0.000000 0.000000 0.000000 0.000000 0.000000 4.096438 12.481293 4.412140 60.381349 1.335458 -4.772917 13.514844 46.884663 7.192969 0.000000 0.000000 0.000000 0.000000 0.000000 0.000000 
